<svg xmlns="http://www.w3.org/2000/svg" xmlns:xlink="http://www.w3.org/1999/xlink" width="1280" height="451" viewBox="0 0 1280 451">
    <defs>
        <rect id="a" width="1280" height="449" rx="30"/>
    </defs>
    <g fill="none" fill-rule="evenodd">
        <g transform="translate(0 1)">
            <mask id="b" fill="#fff">
                <use xlink:href="#a"/>
            </mask>
            <use xlink:href="#a"/>
            <path stroke="#FFF" stroke-dasharray="4" d="M239.042 597.447c-5.281-226.362-36.954-342.572-95.017-348.629-87.096-9.086-107.853 78.756-49.216 121.583 58.637 42.827 206.208 9.95 215.702-236.01 9.494-245.958 122.289-240.388 153.746-218.67C495.715-62.56 520.97-11.69 480.18 26.501c-40.79 38.193-163.159-3.374-132.473-205.573" mask="url(#b)" opacity=".145" transform="rotate(38 281.501 209.188)"/>
        </g>
        <path stroke="#FF8896" stroke-width="1.5" d="M1029 1c9.699 0 9.824 21 18.985 21 9.162 0 8.408-20.839 17.697-21 9.288-.16 10.447 20.35 19.964 20.35S1094.424.977 1103.806 1c9.383.024 10.732 20.443 19.253 20.443 8.52 0 8.52-20.442 14.941-20.442M187 450c9.699 0 9.824-21 18.985-21 9.162 0 8.408 20.839 17.697 21 9.288.16 10.447-20.35 19.964-20.35s8.778 20.373 18.16 20.35c9.383-.024 10.732-20.443 19.253-20.443 8.52 0 8.52 20.442 14.941 20.442"/>
    </g>
</svg>
